<mxfile host="app.diagrams.net" modified="2024-04-05T08:43:01.104Z" agent="Mozilla/5.0 (Windows NT 10.0; Win64; x64) AppleWebKit/537.36 (KHTML, like Gecko) Chrome/123.0.0.0 Safari/537.36" etag="dKCjSUMrQuEsETKHTbx6" version="24.2.2" type="device">
  <diagram name="Страница — 1" id="LyiGeMhcqgT37P0rlk5T">
    <mxGraphModel dx="1434" dy="746" grid="1" gridSize="10" guides="1" tooltips="1" connect="1" arrows="1" fold="1" page="1" pageScale="1" pageWidth="827" pageHeight="1169" math="0" shadow="0">
      <root>
        <mxCell id="0" />
        <mxCell id="1" parent="0" />
        <mxCell id="fIYJ5CS0b0W02Vq3tTy9-12" style="edgeStyle=orthogonalEdgeStyle;rounded=0;orthogonalLoop=1;jettySize=auto;html=1;exitX=0.5;exitY=1;exitDx=0;exitDy=0;entryX=0.5;entryY=0;entryDx=0;entryDy=0;" edge="1" parent="1" source="pXKTRZeTHLnBDf_L6FMC-2" target="pXKTRZeTHLnBDf_L6FMC-3">
          <mxGeometry relative="1" as="geometry" />
        </mxCell>
        <mxCell id="pXKTRZeTHLnBDf_L6FMC-2" value="start" style="rounded=1;whiteSpace=wrap;html=1;" parent="1" vertex="1">
          <mxGeometry x="370" y="47" width="66" height="30" as="geometry" />
        </mxCell>
        <mxCell id="fIYJ5CS0b0W02Vq3tTy9-13" style="edgeStyle=orthogonalEdgeStyle;rounded=0;orthogonalLoop=1;jettySize=auto;html=1;exitX=0.5;exitY=1;exitDx=0;exitDy=0;entryX=0.5;entryY=0;entryDx=0;entryDy=0;" edge="1" parent="1" source="pXKTRZeTHLnBDf_L6FMC-3" target="fIYJ5CS0b0W02Vq3tTy9-2">
          <mxGeometry relative="1" as="geometry" />
        </mxCell>
        <mxCell id="pXKTRZeTHLnBDf_L6FMC-3" value="Input&amp;nbsp;&lt;br&gt;user data" style="shape=parallelogram;perimeter=parallelogramPerimeter;whiteSpace=wrap;html=1;fixedSize=1;" parent="1" vertex="1">
          <mxGeometry x="321" y="110" width="163" height="40" as="geometry" />
        </mxCell>
        <mxCell id="zAKxVBg8SvJJ3kNhJVB6-2" style="edgeStyle=orthogonalEdgeStyle;rounded=0;orthogonalLoop=1;jettySize=auto;html=1;entryX=0;entryY=0.5;entryDx=0;entryDy=0;" parent="1" source="pXKTRZeTHLnBDf_L6FMC-4" target="zAKxVBg8SvJJ3kNhJVB6-1" edge="1">
          <mxGeometry relative="1" as="geometry" />
        </mxCell>
        <mxCell id="zAKxVBg8SvJJ3kNhJVB6-8" value="True" style="edgeLabel;html=1;align=center;verticalAlign=middle;resizable=0;points=[];" parent="zAKxVBg8SvJJ3kNhJVB6-2" vertex="1" connectable="0">
          <mxGeometry x="-0.0178" y="3" relative="1" as="geometry">
            <mxPoint x="1" as="offset" />
          </mxGeometry>
        </mxCell>
        <mxCell id="zAKxVBg8SvJJ3kNhJVB6-5" style="edgeStyle=orthogonalEdgeStyle;rounded=0;orthogonalLoop=1;jettySize=auto;html=1;entryX=0;entryY=0.5;entryDx=0;entryDy=0;exitX=0.5;exitY=1;exitDx=0;exitDy=0;" parent="1" source="pXKTRZeTHLnBDf_L6FMC-4" target="fIYJ5CS0b0W02Vq3tTy9-9" edge="1">
          <mxGeometry relative="1" as="geometry">
            <Array as="points">
              <mxPoint x="475" y="585" />
            </Array>
          </mxGeometry>
        </mxCell>
        <mxCell id="zAKxVBg8SvJJ3kNhJVB6-9" value="False" style="edgeLabel;html=1;align=center;verticalAlign=middle;resizable=0;points=[];" parent="zAKxVBg8SvJJ3kNhJVB6-5" vertex="1" connectable="0">
          <mxGeometry x="-0.1193" relative="1" as="geometry">
            <mxPoint as="offset" />
          </mxGeometry>
        </mxCell>
        <mxCell id="pXKTRZeTHLnBDf_L6FMC-4" value="&lt;div&gt;if&lt;/div&gt;(dataArray[i].length &amp;lt;= 3)" style="rhombus;whiteSpace=wrap;html=1;" parent="1" vertex="1">
          <mxGeometry x="390" y="460" width="170" height="120" as="geometry" />
        </mxCell>
        <mxCell id="pXKTRZeTHLnBDf_L6FMC-44" value="finish" style="rounded=1;whiteSpace=wrap;html=1;" parent="1" vertex="1">
          <mxGeometry x="228" y="647" width="66" height="30" as="geometry" />
        </mxCell>
        <mxCell id="fIYJ5CS0b0W02Vq3tTy9-8" style="edgeStyle=orthogonalEdgeStyle;rounded=0;orthogonalLoop=1;jettySize=auto;html=1;exitX=0.5;exitY=0;exitDx=0;exitDy=0;entryX=1;entryY=0.5;entryDx=0;entryDy=0;" edge="1" parent="1" source="zAKxVBg8SvJJ3kNhJVB6-1" target="fIYJ5CS0b0W02Vq3tTy9-5">
          <mxGeometry relative="1" as="geometry" />
        </mxCell>
        <mxCell id="zAKxVBg8SvJJ3kNhJVB6-1" value="add&amp;nbsp; dataArray[i] to new result Array&lt;div&gt;i++&lt;/div&gt;" style="rounded=0;whiteSpace=wrap;html=1;" parent="1" vertex="1">
          <mxGeometry x="615" y="488" width="130" height="60" as="geometry" />
        </mxCell>
        <mxCell id="zAKxVBg8SvJJ3kNhJVB6-6" style="edgeStyle=orthogonalEdgeStyle;rounded=0;orthogonalLoop=1;jettySize=auto;html=1;entryX=0.5;entryY=0;entryDx=0;entryDy=0;" parent="1" source="zAKxVBg8SvJJ3kNhJVB6-4" target="pXKTRZeTHLnBDf_L6FMC-44" edge="1">
          <mxGeometry relative="1" as="geometry" />
        </mxCell>
        <mxCell id="zAKxVBg8SvJJ3kNhJVB6-4" value="print result Array" style="shape=document;whiteSpace=wrap;html=1;boundedLbl=1;" parent="1" vertex="1">
          <mxGeometry x="201" y="553" width="120" height="60" as="geometry" />
        </mxCell>
        <mxCell id="fIYJ5CS0b0W02Vq3tTy9-14" style="edgeStyle=orthogonalEdgeStyle;rounded=0;orthogonalLoop=1;jettySize=auto;html=1;exitX=0.5;exitY=1;exitDx=0;exitDy=0;entryX=0.5;entryY=0;entryDx=0;entryDy=0;" edge="1" parent="1" source="fIYJ5CS0b0W02Vq3tTy9-2" target="fIYJ5CS0b0W02Vq3tTy9-3">
          <mxGeometry relative="1" as="geometry" />
        </mxCell>
        <mxCell id="fIYJ5CS0b0W02Vq3tTy9-2" value="print Menu" style="rounded=0;whiteSpace=wrap;html=1;" vertex="1" parent="1">
          <mxGeometry x="340" y="180" width="120" height="30" as="geometry" />
        </mxCell>
        <mxCell id="fIYJ5CS0b0W02Vq3tTy9-15" style="edgeStyle=orthogonalEdgeStyle;rounded=0;orthogonalLoop=1;jettySize=auto;html=1;exitX=0.5;exitY=1;exitDx=0;exitDy=0;entryX=0.5;entryY=0;entryDx=0;entryDy=0;" edge="1" parent="1" source="fIYJ5CS0b0W02Vq3tTy9-3" target="fIYJ5CS0b0W02Vq3tTy9-4">
          <mxGeometry relative="1" as="geometry" />
        </mxCell>
        <mxCell id="fIYJ5CS0b0W02Vq3tTy9-3" value="handler data String" style="rounded=0;whiteSpace=wrap;html=1;" vertex="1" parent="1">
          <mxGeometry x="342.5" y="240" width="120" height="30" as="geometry" />
        </mxCell>
        <mxCell id="fIYJ5CS0b0W02Vq3tTy9-11" style="edgeStyle=orthogonalEdgeStyle;rounded=0;orthogonalLoop=1;jettySize=auto;html=1;exitX=0.5;exitY=1;exitDx=0;exitDy=0;entryX=0.5;entryY=0;entryDx=0;entryDy=0;" edge="1" parent="1" source="fIYJ5CS0b0W02Vq3tTy9-4" target="fIYJ5CS0b0W02Vq3tTy9-5">
          <mxGeometry relative="1" as="geometry" />
        </mxCell>
        <mxCell id="fIYJ5CS0b0W02Vq3tTy9-4" value="handler data Array" style="rounded=0;whiteSpace=wrap;html=1;" vertex="1" parent="1">
          <mxGeometry x="342.5" y="298" width="120" height="30" as="geometry" />
        </mxCell>
        <mxCell id="fIYJ5CS0b0W02Vq3tTy9-6" style="edgeStyle=orthogonalEdgeStyle;rounded=0;orthogonalLoop=1;jettySize=auto;html=1;exitX=0.5;exitY=1;exitDx=0;exitDy=0;entryX=0;entryY=0.5;entryDx=0;entryDy=0;" edge="1" parent="1" source="fIYJ5CS0b0W02Vq3tTy9-5" target="pXKTRZeTHLnBDf_L6FMC-4">
          <mxGeometry relative="1" as="geometry" />
        </mxCell>
        <mxCell id="fIYJ5CS0b0W02Vq3tTy9-7" value="True" style="edgeLabel;html=1;align=center;verticalAlign=middle;resizable=0;points=[];" vertex="1" connectable="0" parent="fIYJ5CS0b0W02Vq3tTy9-6">
          <mxGeometry x="0.0214" y="2" relative="1" as="geometry">
            <mxPoint as="offset" />
          </mxGeometry>
        </mxCell>
        <mxCell id="fIYJ5CS0b0W02Vq3tTy9-17" style="edgeStyle=orthogonalEdgeStyle;rounded=0;orthogonalLoop=1;jettySize=auto;html=1;exitX=0;exitY=0.5;exitDx=0;exitDy=0;entryX=0.5;entryY=0;entryDx=0;entryDy=0;" edge="1" parent="1" source="fIYJ5CS0b0W02Vq3tTy9-5" target="zAKxVBg8SvJJ3kNhJVB6-4">
          <mxGeometry relative="1" as="geometry">
            <Array as="points">
              <mxPoint x="160" y="430" />
              <mxPoint x="160" y="520" />
              <mxPoint x="261" y="520" />
            </Array>
          </mxGeometry>
        </mxCell>
        <mxCell id="fIYJ5CS0b0W02Vq3tTy9-19" value="False" style="edgeLabel;html=1;align=center;verticalAlign=middle;resizable=0;points=[];" vertex="1" connectable="0" parent="fIYJ5CS0b0W02Vq3tTy9-17">
          <mxGeometry x="0.087" relative="1" as="geometry">
            <mxPoint as="offset" />
          </mxGeometry>
        </mxCell>
        <mxCell id="fIYJ5CS0b0W02Vq3tTy9-5" value="&lt;div&gt;i = 0&lt;/div&gt;while(dataArray.length &amp;gt; i)&lt;div&gt;&lt;br&gt;&lt;/div&gt;" style="rhombus;whiteSpace=wrap;html=1;" vertex="1" parent="1">
          <mxGeometry x="180" y="390" width="217.5" height="80" as="geometry" />
        </mxCell>
        <mxCell id="fIYJ5CS0b0W02Vq3tTy9-10" style="edgeStyle=orthogonalEdgeStyle;rounded=0;orthogonalLoop=1;jettySize=auto;html=1;exitX=1;exitY=0.5;exitDx=0;exitDy=0;entryX=1;entryY=0.5;entryDx=0;entryDy=0;" edge="1" parent="1" source="fIYJ5CS0b0W02Vq3tTy9-9" target="fIYJ5CS0b0W02Vq3tTy9-5">
          <mxGeometry relative="1" as="geometry" />
        </mxCell>
        <mxCell id="fIYJ5CS0b0W02Vq3tTy9-9" value="&lt;div&gt;i++&lt;/div&gt;" style="rounded=0;whiteSpace=wrap;html=1;" vertex="1" parent="1">
          <mxGeometry x="615" y="570" width="130" height="30" as="geometry" />
        </mxCell>
      </root>
    </mxGraphModel>
  </diagram>
</mxfile>
